# xmcd
#
# Track frame offsets: 
#        183
#        23298
#        38808
#        60358
#        75650
#        101713
#        123305
#        141410
#        154920
#        179055
#        196895
#        218973
#        234330
#        250288
#        269040
#
# Disc length: 3884 seconds
#
# Revision: 17
# Processed by: cddbd v1.5.2PL0 Copyright (c) Steve Scherf et al.
# Submitted via: ExactAudioCopy v1.3
#
DISCID=d20f2a0f
DTITLE=New Model Army - Thunder and Consolation
DYEAR=1989
DGENRE=New Wave
TTITLE0=I Love The World
TTITLE1=Stupid Questions
TTITLE2=225
TTITLE3=Inheritance
TTITLE4=Green and Grey
TTITLE5=Ballad of Bodmin Pill
TTITLE6=Family
TTITLE7=Family Life
TTITLE8=Vagabonds
TTITLE9=125 mph
TTITLE10=Archway Towers
TTITLE11=The Charge
TTITLE12=Chinese Whispers
TTITLE13=Nothing Touches
TTITLE14=White Coats
EXTD=YEAR: 1989\n
EXTT0=
EXTT1=
EXTT2=
EXTT3=
EXTT4=
EXTT5=
EXTT6=
EXTT7=
EXTT8=
EXTT9=
EXTT10=
EXTT11=
EXTT12=
EXTT13=
EXTT14=
PLAYORDER=
